<?xml version="1.0" encoding="utf-8"?>
<!-- Generator: Adobe Illustrator 24.3.0, SVG Export Plug-In . SVG Version: 6.00 Build 0)  -->
<svg version="1.1" id="Layer_1" xmlns="http://www.w3.org/2000/svg" xmlns:xlink="http://www.w3.org/1999/xlink" x="0px" y="0px"
	 viewBox="0 0 8192 3920" style="enable-background:new 0 0 8192 3920;" xml:space="preserve">
<style type="text/css">
	.st0{display:none;}
	.st1{display:inline;fill:#0384A3;}
	.st2{display:inline;fill:#EB7B23;}
	.st3{display:inline;fill:#A32123;}
	.st4{display:inline;fill:#012939;}
	.st5{display:inline;fill:url(#SVGID_1_);}
	.st6{display:inline;fill:#7DB00E;}
	.st7{fill:#012939;}
	.st8{fill:url(#SVGID_2_);}
	.st9{fill:#7DB00E;}
	.st10{fill:none;}
	.st11{enable-background:new    ;}
</style>
<g class="st0">
	<path class="st1" d="M4041,1649.2h-11.8c0.2,2.6,1.8,3.9,4.9,3.9c2,0,3.8-0.5,5.2-1.4v4c-1.6,0.9-3.9,1.4-6.5,1.4
		c-2.9,0-5.2-0.8-6.8-2.4c-1.6-1.6-2.4-3.9-2.4-6.8c0-3,0.9-5.4,2.6-7.1c1.8-1.8,3.9-2.6,6.4-2.6c2.6,0,4.7,0.8,6.1,2.3
		c1.4,1.6,2.2,3.7,2.2,6.4L4041,1649.2L4041,1649.2z M4035.9,1645.8c0-2.6-1-3.9-3.1-3.9c-0.9,0-1.6,0.4-2.3,1.1
		c-0.7,0.7-1,1.6-1.2,2.8L4035.9,1645.8L4035.9,1645.8z"/>
	<path class="st1" d="M4055.3,1656.4c-0.8,0.5-2,0.6-3.7,0.6c-3.9,0-5.9-2-5.9-6.1v-8.3h-3v-4.1h3v-3.9l5.6-1.6v5.5h4v4.1h-4v7.3
		c0,1.9,0.7,2.8,2.2,2.8c0.6,0,1.2-0.2,1.8-0.5V1656.4z"/>
	<path class="st1" d="M4070.2,1643.6c-0.7-0.3-1.5-0.6-2.3-0.6c-1.2,0-2.2,0.5-2.8,1.3c-0.7,0.9-1,2.1-1,3.6v8.6h-5.6v-18.1h5.6v3.4
		h0.1c0.9-2.4,2.4-3.7,4.8-3.7c0.6,0,1,0.1,1.4,0.2V1643.6z"/>
	<path class="st2" d="M4089.1,1649.2h-11.8c0.2,2.6,1.8,3.9,4.9,3.9c2,0,3.8-0.5,5.2-1.4v4c-1.6,0.9-3.9,1.4-6.5,1.4
		c-2.9,0-5.2-0.8-6.8-2.4c-1.6-1.6-2.4-3.9-2.4-6.8c0-3,0.9-5.4,2.6-7.1c1.8-1.8,3.9-2.6,6.4-2.6c2.6,0,4.7,0.8,6.1,2.3
		c1.4,1.6,2.2,3.7,2.2,6.4L4089.1,1649.2L4089.1,1649.2z M4083.9,1645.8c0-2.6-1-3.9-3.1-3.9c-0.9,0-1.6,0.4-2.3,1.1
		c-0.7,0.7-1,1.6-1.2,2.8L4083.9,1645.8L4083.9,1645.8z"/>
	<path class="st2" d="M4109.6,1638.6l-6.7,18.1h-6.4l-6.4-18.1h6l3.1,11.2c0.3,1.3,0.6,2.3,0.6,3.2h0.1c0.1-0.9,0.3-1.9,0.6-3.1
		l3.2-11.3L4109.6,1638.6L4109.6,1638.6z"/>
	<path class="st2" d="M4127,1656.7h-5.3v-2.6h-0.1c-1.2,2-3,3-5.4,3c-1.8,0-3.1-0.5-4.2-1.5c-1-1-1.5-2.3-1.5-4
		c0-3.5,2.1-5.5,6.3-6.1l4.9-0.6c0-2-1.1-3-3.2-3c-2.2,0-4.2,0.6-6.1,1.9v-4.2c0.8-0.4,1.8-0.7,3.2-1.1c1.4-0.3,2.6-0.5,3.7-0.5
		c5.2,0,7.7,2.6,7.7,7.7L4127,1656.7L4127,1656.7z M4121.8,1649.3v-1.2l-3.3,0.4c-1.8,0.2-2.7,1.1-2.7,2.4c0,0.6,0.2,1.1,0.7,1.5
		s1,0.6,1.8,0.6c1,0,1.9-0.3,2.6-1.1C4121.4,1651.4,4121.8,1650.4,4121.8,1649.3z"/>
	<path class="st3" d="M4149.1,1654.6c0,3.4-1,6-2.9,7.8s-4.8,2.8-8.4,2.8c-2.4,0-4.4-0.3-5.8-1v-4.7c1.9,1.1,3.8,1.6,5.6,1.6
		s3.4-0.5,4.4-1.5c1-1,1.5-2.3,1.5-4v-1.4h-0.1c-1.3,2-3.1,3-5.6,3c-2.3,0-4.2-0.8-5.5-2.4c-1.4-1.6-2-3.8-2-6.5
		c0-3.1,0.7-5.5,2.3-7.3c1.5-1.8,3.5-2.7,6-2.7c2.2,0,3.9,0.9,4.9,2.6h0.1v-2.1h5.6L4149.1,1654.6L4149.1,1654.6z M4143.7,1648v-1.4
		c0-1.1-0.3-2.1-1-2.9c-0.7-0.8-1.5-1.2-2.6-1.2c-1.3,0-2.2,0.5-2.9,1.4c-0.7,1-1.1,2.3-1.1,4.1c0,1.5,0.3,2.7,1,3.6
		c0.7,0.9,1.6,1.3,2.7,1.3s2.1-0.5,2.8-1.3C4143.3,1650.6,4143.7,1649.4,4143.7,1648z"/>
	<path class="st3" d="M4162.4,1657.1c-3,0-5.4-0.9-7.1-2.6c-1.7-1.7-2.6-4-2.6-6.9c0-3,0.9-5.3,2.7-7c1.8-1.7,4.2-2.6,7.3-2.6
		c3,0,5.3,0.9,7.1,2.6c1.7,1.7,2.6,3.9,2.6,6.7c0,3-0.9,5.3-2.6,7.1C4167.9,1656.3,4165.5,1657.1,4162.4,1657.1z M4162.6,1642.4
		c-1.3,0-2.3,0.5-3.1,1.4c-0.7,0.9-1.1,2.2-1.1,3.9c0,3.5,1.4,5.2,4.2,5.2c2.7,0,4-1.8,4-5.3
		C4166.6,1644.1,4165.3,1642.4,4162.6,1642.4z"/>
</g>
<g>
	<g class="st0">
		<path class="st4" d="M7952.6,276.8H6704.9c-206.3,0-401.5,93.8-530.4,254.9l-425.7,532.1h1574.1L7952.6,276.8z"/>
		
			<linearGradient id="SVGID_1_" gradientUnits="userSpaceOnUse" x1="7265.2861" y1="6041.5127" x2="10875.6445" y2="2431.1543" gradientTransform="matrix(0.5689 0 0 -0.5689 1507.1644 3661.3335)">
			<stop  offset="0" style="stop-color:#00F1FF"/>
			<stop  offset="0.9921" style="stop-color:#5364FF"/>
		</linearGradient>
		<path class="st5" d="M5748.8,1063.8l425.7,532.1c128.9,161.1,324,254.9,530.4,254.9h1247.7l-629.6-787.1H5748.8z"/>
		<path class="st6" d="M5748.8,1063.8l425.7,532.1c128.9,161.1,324,254.9,530.4,254.9h1247.7l-629.6-787.1H5748.8z"/>
	</g>
	<g>
		<path class="st7" d="M7895,1257.1h-861.7c-142.5,0-277.3,64.8-366.3,176.1l-294,367.6h1087.1L7895,1257.1z"/>
		
			<linearGradient id="SVGID_2_" gradientUnits="userSpaceOnUse" x1="8421.5117" y1="4289.7334" x2="10915.0186" y2="1796.2257" gradientTransform="matrix(0.5689 0 0 -0.5689 1507.1644 3661.3335)">
			<stop  offset="0" style="stop-color:#00F1FF"/>
			<stop  offset="0.9921" style="stop-color:#5364FF"/>
		</linearGradient>
		<path class="st8" d="M6373,1800.7l294,367.6c89,111.3,223.8,176.1,366.3,176.1H7895l-434.9-543.6L6373,1800.7L6373,1800.7z"/>
		<path class="st9" d="M6373,1800.7l294,367.6c89,111.3,223.8,176.1,366.3,176.1H7895l-434.9-543.6L6373,1800.7L6373,1800.7z"/>
	</g>
	<g>
		<g>
			<rect x="239.4" y="1898" class="st10" width="6040.7" height="543.5"/>
		</g>
		<g class="st11">
			<path class="st9" d="M681.4,2262.6c0,30.8-7.9,58.4-23.8,82.9c-15.8,24.5-39,43.7-69.6,57.6c-30.5,13.9-66.7,20.8-108.6,20.8
				c-50.2,0-91.6-9.5-124.2-28.4c-23.1-13.6-41.9-31.9-56.4-54.6c-14.5-22.8-21.7-44.9-21.7-66.4c0-12.5,4.3-23.2,13-32.1
				c8.7-8.9,19.7-13.4,33.1-13.4c10.9,0,20.1,3.5,27.6,10.4c7.5,6.9,13.9,17.2,19.3,30.9c6.5,16.2,13.5,29.7,21,40.6
				c7.5,10.9,18.1,19.8,31.7,26.9c13.6,7.1,31.6,10.6,53.8,10.6c30.5,0,55.3-7.1,74.4-21.3c19.1-14.2,28.6-32,28.6-53.3
				c0-16.9-5.1-30.6-15.4-41.1c-10.3-10.5-23.6-18.6-39.9-24.1s-38.1-11.4-65.4-17.7c-36.5-8.6-67.1-18.6-91.8-30
				c-24.6-11.4-44.2-27.1-58.6-46.8c-14.5-19.8-21.7-44.3-21.7-73.7c0-28,7.6-52.8,22.9-74.6c15.3-21.7,37.3-38.4,66.3-50.1
				c28.9-11.7,62.9-17.5,102-17.5c31.2,0,58.2,3.9,81,11.6c22.8,7.8,41.7,18,56.7,30.9c15,12.8,26,26.3,33,40.4
				c6.9,14.1,10.4,27.9,10.4,41.3c0,12.3-4.3,23.3-13,33.1c-8.7,9.8-19.5,14.7-32.4,14.7c-11.8,0-20.8-2.9-26.9-8.8
				c-6.1-5.9-12.8-15.6-19.9-29c-9.3-19.2-20.4-34.2-33.3-44.9c-13-10.8-33.8-16.1-62.4-16.1c-26.6,0-48,5.8-64.4,17.5
				c-16.3,11.7-24.5,25.7-24.5,42.2c0,10.2,2.8,19,8.3,26.4c5.6,7.4,13.2,13.8,22.9,19.1c9.7,5.3,19.5,9.5,29.5,12.5
				c9.9,3,26.4,7.4,49.3,13.2c28.7,6.7,54.6,14.1,77.9,22.2c23.2,8.1,43,17.9,59.3,29.5c16.3,11.6,29,26.2,38.2,43.9
				C676.9,2215.3,681.4,2237,681.4,2262.6z"/>
			<path class="st9" d="M1315.9,1898c52.7,0,98,10.7,135.8,32.1c37.8,21.4,66.4,51.8,85.9,91.2c19.4,39.4,29.1,85.8,29.1,138.9
				c0,39.3-5.3,75.1-16,107.2c-10.6,32.2-26.6,60-47.9,83.6c-21.3,23.6-47.4,41.6-78.4,54.1c-31,12.5-66.5,18.7-106.5,18.7
				c-39.8,0-75.4-6.4-106.9-19.3c-31.5-12.8-57.7-30.9-78.8-54.3c-21-23.4-36.9-51.5-47.7-84.3c-10.8-32.8-16.1-68.3-16.1-106.5
				c0-39.1,5.6-74.9,16.8-107.5c11.2-32.6,27.5-60.4,48.7-83.3c21.3-22.9,47.2-40.4,77.7-52.6S1277.1,1898,1315.9,1898z
				 M1462.3,2159.6c0-37.2-6-69.5-18-96.8c-12-27.3-29.2-47.9-51.5-61.9c-22.3-14-47.9-21-76.8-21c-20.6,0-39.6,3.9-57.1,11.6
				c-17.5,7.8-32.5,19-45.1,33.8c-12.6,14.8-22.5,33.7-29.8,56.7c-7.3,23-10.9,48.9-10.9,77.5c0,28.9,3.6,55,10.9,78.4
				c7.3,23.4,17.6,42.7,30.9,58.1c13.3,15.4,28.6,26.9,45.8,34.5c17.2,7.6,36.1,11.4,56.7,11.4c26.4,0,50.6-6.6,72.7-19.8
				c22.1-13.2,39.7-33.5,52.7-61.1C1455.8,2233.7,1462.3,2199.8,1462.3,2159.6z"/>
			<path class="st9" d="M2079.1,1960.5v370.2h208.8c16.7,0,29.4,4,38.3,12.1c8.9,8.1,13.4,18.3,13.4,30.5c0,12.5-4.4,22.6-13.2,30.4
				c-8.8,7.8-21.6,11.6-38.5,11.6h-248.7c-22.4,0-38.6-5-48.4-14.9c-9.8-9.9-14.7-26-14.7-48.2v-391.7c0-20.8,4.7-36.4,14-46.8
				c9.4-10.4,21.7-15.6,36.9-15.6c15.5,0,28,5.1,37.6,15.4C2074.3,1923.8,2079.1,1939.4,2079.1,1960.5z"/>
			<path class="st9" d="M2695.9,2205v-244.6c0-20.8,4.7-36.4,14-46.8c9.4-10.4,21.7-15.6,36.9-15.6c16,0,28.6,5.2,38,15.6
				c9.4,10.4,14,26,14,46.8v250.1c0,28.4,3.2,52.2,9.5,71.3c6.4,19.1,17.6,33.9,33.8,44.4c16.2,10.5,38.9,15.8,68,15.8
				c40.2,0,68.7-10.7,85.3-32.1c16.7-21.4,25-53.8,25-97.3v-252.2c0-21,4.6-36.7,13.9-47c9.2-10.3,21.6-15.4,37.1-15.4
				c15.5,0,28,5.1,37.6,15.4c9.6,10.3,14.4,26,14.4,47V2205c0,39.8-3.9,73-11.6,99.6c-7.8,26.6-22.4,50-43.9,70.1
				c-18.5,17.1-40,29.6-64.5,37.5c-24.5,7.9-53.2,11.8-86,11.8c-39.1,0-72.7-4.2-101-12.7c-28.2-8.4-51.2-21.5-69-39.2
				c-17.8-17.7-30.9-40.4-39.2-68C2700,2276.5,2695.9,2243.4,2695.9,2205z"/>
			<path class="st9" d="M3888.5,1991.7h-112.4v369.5c0,21.3-4.7,37.1-14.2,47.4c-9.5,10.3-21.7,15.4-36.8,15.4
				c-15.3,0-27.7-5.2-37.3-15.6c-9.6-10.4-14.4-26.1-14.4-47.2v-369.5H3561c-17.6,0-30.6-3.9-39.2-11.6c-8.6-7.7-12.8-18-12.8-30.7
				c0-13.2,4.5-23.6,13.4-31.2c8.9-7.6,21.8-11.4,38.7-11.4h327.5c17.8,0,31,3.9,39.7,11.8c8.7,7.9,13,18.2,13,30.9
				c0,12.7-4.4,23-13.2,30.7C3919.3,1987.8,3906.1,1991.7,3888.5,1991.7z"/>
			<path class="st9" d="M4329.8,2361.2v-400.7c0-20.8,4.7-36.4,14.2-46.8c9.5-10.4,21.7-15.6,36.8-15.6c15.5,0,28,5.1,37.6,15.4
				c9.6,10.3,14.4,26,14.4,47v400.7c0,21-4.8,36.8-14.4,47.2c-9.6,10.4-22.1,15.6-37.6,15.6c-14.8,0-27-5.3-36.6-15.8
				C4334.6,2397.7,4329.8,2382,4329.8,2361.2z"/>
			<path class="st9" d="M5095,1898c52.7,0,98,10.7,135.8,32.1c37.8,21.4,66.4,51.8,85.9,91.2c19.4,39.4,29.1,85.8,29.1,138.9
				c0,39.3-5.3,75.1-16,107.2c-10.6,32.2-26.6,60-47.9,83.6c-21.3,23.6-47.4,41.6-78.4,54.1c-31,12.5-66.5,18.7-106.5,18.7
				c-39.8,0-75.4-6.4-106.9-19.3c-31.5-12.8-57.7-30.9-78.8-54.3c-21-23.4-36.9-51.5-47.7-84.3c-10.8-32.8-16.1-68.3-16.1-106.5
				c0-39.1,5.6-74.9,16.8-107.5c11.2-32.6,27.5-60.4,48.7-83.3c21.3-22.9,47.2-40.4,77.7-52.6S5056.2,1898,5095,1898z
				 M5241.4,2159.6c0-37.2-6-69.5-18-96.8c-12-27.3-29.2-47.9-51.5-61.9c-22.3-14-47.9-21-76.8-21c-20.6,0-39.6,3.9-57.1,11.6
				c-17.5,7.8-32.5,19-45.1,33.8c-12.6,14.8-22.5,33.7-29.8,56.7c-7.3,23-10.9,48.9-10.9,77.5c0,28.9,3.6,55,10.9,78.4
				c7.3,23.4,17.6,42.7,30.9,58.1c13.3,15.4,28.6,26.9,45.8,34.5c17.2,7.6,36.1,11.4,56.7,11.4c26.4,0,50.6-6.6,72.7-19.8
				c22.1-13.2,39.7-33.5,52.7-61.1C5234.9,2233.7,5241.4,2199.8,5241.4,2159.6z"/>
		</g>
		<g class="st11">
			<path class="st9" d="M5930.1,1959.8l198.1,299.7V1957c0-19.7,4.2-34.4,12.7-44.2c8.4-9.8,19.8-14.7,34.2-14.7
				c14.8,0,26.5,4.9,35,14.7c8.6,9.8,12.8,24.6,12.8,44.2v400c0,44.6-18.5,67-55.5,67c-9.3,0-17.6-1.3-25-4
				c-7.4-2.7-14.3-6.9-20.8-12.7c-6.5-5.8-12.5-12.5-18-20.3c-5.6-7.7-11.1-15.7-16.7-23.8L5893.7,2067v298
				c0,19.4-4.5,34.1-13.5,44.1c-9,9.9-20.6,14.9-34.7,14.9c-14.6,0-26.3-5-35-15.1c-8.8-10.1-13.2-24.7-13.2-43.9v-392.4
				c0-16.7,1.8-29.7,5.6-39.2c4.4-10.4,11.7-18.9,21.9-25.5c10.2-6.6,21.2-9.9,33-9.9c9.2,0,17.2,1.5,23.8,4.5
				c6.6,3,12.4,7.1,17.3,12.1c5,5.1,10.1,11.7,15.3,19.8C5919.2,1942.5,5924.5,1951,5930.1,1959.8z"/>
		</g>
	</g>
	<g>
		<g>
			<rect x="239.4" y="989.4" class="st10" width="6040.7" height="535.3"/>
		</g>
		<g class="st11">
			<path class="st9" d="M728.3,1346.1c0,16.2-4,33.7-12,52.6c-8,18.9-20.5,37.4-37.6,55.5c-17.1,18.2-39,32.9-65.6,44.2
				c-26.6,11.3-57.6,17-93,17c-26.8,0-51.2-2.5-73.2-7.6c-22-5.1-41.9-13-59.8-23.8c-17.9-10.8-34.4-24.9-49.4-42.5
				c-13.4-16-24.9-33.8-34.3-53.6c-9.5-19.8-16.6-40.9-21.3-63.3c-4.7-22.4-7.1-46.3-7.1-71.5c0-40.9,6-77.6,17.9-110
				c11.9-32.4,29-60.1,51.2-83.1c22.2-23,48.2-40.5,78.1-52.6c29.8-12,61.6-18,95.4-18c41.2,0,77.8,8.2,110,24.6
				c32.1,16.4,56.8,36.7,73.9,60.9c17.1,24.2,25.7,47,25.7,68.5c0,11.8-4.2,22.2-12.5,31.2c-8.3,9-18.4,13.5-30.2,13.5
				c-13.2,0-23.1-3.1-29.7-9.4c-6.6-6.2-13.9-17-22-32.3c-13.4-25.2-29.2-44.1-47.4-56.5c-18.2-12.5-40.5-18.7-67.1-18.7
				c-42.3,0-76,16.1-101.1,48.2c-25.1,32.2-37.6,77.8-37.6,137c0,39.5,5.6,72.5,16.7,98.7c11.1,26.3,26.8,45.9,47.2,58.8
				c20.3,13,44.2,19.4,71.5,19.4c29.6,0,54.6-7.3,75.1-22c20.5-14.7,35.9-36.3,46.3-64.7c4.4-13.4,9.8-24.3,16.3-32.8
				c6.5-8.4,16.9-12.7,31.2-12.7c12.3,0,22.8,4.3,31.6,12.8C723.9,1322.7,728.3,1333.3,728.3,1346.1z"/>
			<path class="st9" d="M1144.1,989.4c52.7,0,98,10.7,135.8,32.1c37.8,21.4,66.4,51.8,85.9,91.2c19.4,39.4,29.1,85.8,29.1,138.9
				c0,39.3-5.3,75.1-16,107.2c-10.6,32.2-26.6,60-47.9,83.6c-21.3,23.6-47.4,41.6-78.4,54.1c-31,12.5-66.5,18.7-106.5,18.7
				c-39.8,0-75.4-6.4-106.9-19.3c-31.5-12.8-57.7-30.9-78.8-54.3c-21-23.4-36.9-51.5-47.7-84.3c-10.8-32.8-16.1-68.3-16.1-106.5
				c0-39.1,5.6-74.9,16.8-107.5c11.2-32.6,27.5-60.4,48.7-83.3c21.3-22.9,47.2-40.4,77.7-52.6S1105.3,989.4,1144.1,989.4z
				 M1290.5,1251c0-37.2-6-69.5-18-96.8c-12-27.3-29.2-47.9-51.5-61.9c-22.3-14-47.9-21-76.8-21c-20.6,0-39.6,3.9-57.1,11.6
				c-17.5,7.8-32.5,19-45.1,33.8c-12.6,14.8-22.5,33.7-29.8,56.7c-7.3,23-10.9,48.9-10.9,77.5c0,28.9,3.6,55,10.9,78.4
				c7.3,23.4,17.6,42.7,30.9,58.1c13.3,15.4,28.6,26.9,45.8,34.5c17.2,7.6,36.1,11.4,56.7,11.4c26.4,0,50.6-6.6,72.7-19.8
				c22.1-13.2,39.7-33.5,52.7-61.1C1284,1325.1,1290.5,1291.2,1290.5,1251z"/>
			<path class="st9" d="M1716.8,1051.2l198.1,299.7v-302.5c0-19.7,4.2-34.4,12.7-44.2c8.4-9.8,19.8-14.7,34.2-14.7
				c14.8,0,26.5,4.9,35,14.7c8.6,9.8,12.8,24.6,12.8,44.2v400c0,44.6-18.5,67-55.5,67c-9.3,0-17.6-1.3-25-4
				c-7.4-2.7-14.3-6.9-20.8-12.7c-6.5-5.8-12.5-12.5-18-20.3c-5.6-7.7-11.1-15.7-16.7-23.8l-193.2-296.3v298
				c0,19.4-4.5,34.1-13.5,44.1c-9,9.9-20.6,14.9-34.7,14.9c-14.6,0-26.3-5-35-15.1c-8.8-10.1-13.2-24.7-13.2-43.9V1064
				c0-16.7,1.8-29.7,5.6-39.2c4.4-10.4,11.7-18.9,21.9-25.5c10.2-6.6,21.2-9.9,33-9.9c9.2,0,17.2,1.5,23.8,4.5
				c6.6,3,12.4,7.1,17.3,12.1c5,5.1,10.1,11.7,15.3,19.8C1705.9,1033.9,1711.3,1042.4,1716.8,1051.2z"/>
			<path class="st9" d="M2552.1,1083.1h-112.4v369.5c0,21.3-4.7,37.1-14.2,47.4c-9.5,10.3-21.7,15.4-36.8,15.4
				c-15.3,0-27.7-5.2-37.3-15.6c-9.6-10.4-14.4-26.1-14.4-47.2v-369.5h-112.4c-17.6,0-30.6-3.9-39.2-11.6
				c-8.6-7.7-12.8-18-12.8-30.7c0-13.2,4.5-23.6,13.4-31.2c8.9-7.6,21.8-11.4,38.7-11.4h327.5c17.8,0,31,3.9,39.7,11.8
				c8.7,7.9,13,18.2,13,30.9c0,12.7-4.4,23-13.2,30.7C2582.9,1079.2,2569.7,1083.1,2552.1,1083.1z"/>
			<path class="st9" d="M2903.8,1289.2h-36.1v163.4c0,21.5-4.7,37.4-14.2,47.5c-9.5,10.2-21.9,15.3-37.1,15.3
				c-16.4,0-29.1-5.3-38.2-16c-9-10.6-13.5-26.2-13.5-46.8v-391.3c0-22.2,5-38.3,14.9-48.2c9.9-9.9,26-14.9,48.2-14.9h167.6
				c23.1,0,42.9,1,59.3,2.9c16.4,2,31.2,6,44.4,12c16,6.7,30.1,16.3,42.3,28.8c12.3,12.5,21.6,27,27.9,43.5
				c6.4,16.5,9.5,34.1,9.5,52.6c0,37.9-10.7,68.2-32.1,90.9c-21.4,22.7-53.8,38.7-97.3,48.2c18.3,9.7,35.7,24.1,52.4,43
				c16.7,19,31.5,39.1,44.6,60.5c13.1,21.4,23.2,40.7,30.5,57.9c7.3,17.2,10.9,29.1,10.9,35.6c0,6.7-2.1,13.4-6.4,19.9
				c-4.3,6.6-10.1,11.8-17.5,15.6c-7.4,3.8-16,5.7-25.7,5.7c-11.6,0-21.3-2.7-29.1-8.2c-7.9-5.4-14.6-12.3-20.3-20.6
				c-5.7-8.3-13.4-20.6-23.1-36.8l-41.3-68.7c-14.8-25.2-28-44.4-39.7-57.6c-11.7-13.2-23.5-22.2-35.6-27.1
				C2937.2,1291.6,2922.1,1289.2,2903.8,1289.2z M2962.8,1075.5h-95.1v139.8h92.3c24.7,0,45.6-2.1,62.4-6.4
				c16.9-4.3,29.8-11.6,38.7-21.9c8.9-10.3,13.4-24.5,13.4-42.5c0-14.1-3.6-26.5-10.8-37.3c-7.2-10.8-17.1-18.8-29.8-24.1
				C3021.9,1078,2998.2,1075.5,2962.8,1075.5z"/>
			<path class="st9" d="M3701.3,1449.1l-24.3-63.8h-206.8l-24.3,65.2c-9.5,25.4-17.6,42.6-24.3,51.5c-6.7,8.9-17.7,13.4-33,13.4
				c-13,0-24.4-4.7-34.3-14.2c-9.9-9.5-14.9-20.2-14.9-32.3c0-6.9,1.2-14.1,3.5-21.5c2.3-7.4,6.1-17.7,11.4-30.9l130.1-330.3
				c3.7-9.5,8.2-20.9,13.4-34.2c5.2-13.3,10.8-24.3,16.7-33.1c5.9-8.8,13.6-15.9,23.2-21.3c9.6-5.4,21.5-8.2,35.6-8.2
				c14.3,0,26.3,2.7,35.9,8.2c9.6,5.4,17.3,12.4,23.2,21c5.9,8.6,10.9,17.8,14.9,27.6c4,9.8,9.2,23,15.4,39.4l132.9,328.2
				c10.4,25,15.6,43.1,15.6,54.5c0,11.8-4.9,22.6-14.7,32.4c-9.8,9.8-21.7,14.7-35.6,14.7c-8.1,0-15-1.4-20.8-4.3
				c-5.8-2.9-10.6-6.8-14.6-11.8c-3.9-5-8.2-12.6-12.7-22.9C3708.4,1466,3704.5,1457,3701.3,1449.1z M3497.3,1307.9h152l-76.7-209.9
				L3497.3,1307.9z"/>
			<path class="st9" d="M4402,1346.1c0,16.2-4,33.7-12,52.6c-8,18.9-20.5,37.4-37.6,55.5c-17.1,18.2-39,32.9-65.6,44.2
				c-26.6,11.3-57.6,17-93,17c-26.8,0-51.2-2.5-73.2-7.6c-22-5.1-41.9-13-59.8-23.8c-17.9-10.8-34.4-24.9-49.4-42.5
				c-13.4-16-24.9-33.8-34.3-53.6c-9.5-19.8-16.6-40.9-21.3-63.3c-4.7-22.4-7.1-46.3-7.1-71.5c0-40.9,6-77.6,17.9-110
				c11.9-32.4,29-60.1,51.2-83.1c22.2-23,48.2-40.5,78.1-52.6c29.8-12,61.6-18,95.4-18c41.2,0,77.8,8.2,110,24.6
				c32.1,16.4,56.8,36.7,73.9,60.9c17.1,24.2,25.7,47,25.7,68.5c0,11.8-4.2,22.2-12.5,31.2c-8.3,9-18.4,13.5-30.2,13.5
				c-13.2,0-23.1-3.1-29.7-9.4c-6.6-6.2-13.9-17-22-32.3c-13.4-25.2-29.2-44.1-47.4-56.5c-18.2-12.5-40.5-18.7-67.1-18.7
				c-42.3,0-76,16.1-101.1,48.2c-25.1,32.2-37.6,77.8-37.6,137c0,39.5,5.6,72.5,16.7,98.7c11.1,26.3,26.8,45.9,47.2,58.8
				c20.3,13,44.2,19.4,71.5,19.4c29.6,0,54.6-7.3,75.1-22c20.5-14.7,35.9-36.3,46.3-64.7c4.4-13.4,9.8-24.3,16.3-32.8
				c6.5-8.4,16.9-12.7,31.2-12.7c12.3,0,22.8,4.3,31.6,12.8C4397.6,1322.7,4402,1333.3,4402,1346.1z"/>
			<path class="st9" d="M4924.4,1083.1h-112.4v369.5c0,21.3-4.7,37.1-14.2,47.4c-9.5,10.3-21.7,15.4-36.8,15.4
				c-15.3,0-27.7-5.2-37.3-15.6c-9.6-10.4-14.4-26.1-14.4-47.2v-369.5h-112.4c-17.6,0-30.6-3.9-39.2-11.6
				c-8.6-7.7-12.8-18-12.8-30.7c0-13.2,4.5-23.6,13.4-31.2c8.9-7.6,21.8-11.4,38.7-11.4h327.5c17.8,0,31,3.9,39.7,11.8
				c8.7,7.9,13,18.2,13,30.9c0,12.7-4.4,23-13.2,30.7C4955.1,1079.2,4941.9,1083.1,4924.4,1083.1z"/>
			<path class="st9" d="M5352,989.4c52.7,0,98,10.7,135.8,32.1c37.8,21.4,66.4,51.8,85.9,91.2c19.4,39.4,29.1,85.8,29.1,138.9
				c0,39.3-5.3,75.1-16,107.2c-10.6,32.2-26.6,60-47.9,83.6c-21.3,23.6-47.4,41.6-78.4,54.1c-31,12.5-66.5,18.7-106.5,18.7
				c-39.8,0-75.4-6.4-106.9-19.3c-31.5-12.8-57.7-30.9-78.8-54.3c-21-23.4-36.9-51.5-47.7-84.3c-10.8-32.8-16.1-68.3-16.1-106.5
				c0-39.1,5.6-74.9,16.8-107.5c11.2-32.6,27.5-60.4,48.7-83.3c21.3-22.9,47.2-40.4,77.7-52.6S5313.2,989.4,5352,989.4z
				 M5498.4,1251c0-37.2-6-69.5-18-96.8c-12-27.3-29.2-47.9-51.5-61.9c-22.3-14-47.9-21-76.8-21c-20.6,0-39.6,3.9-57.1,11.6
				c-17.5,7.8-32.5,19-45.1,33.8c-12.6,14.8-22.5,33.7-29.8,56.7c-7.3,23-10.9,48.9-10.9,77.5c0,28.9,3.6,55,10.9,78.4
				c7.3,23.4,17.6,42.7,30.9,58.1c13.3,15.4,28.6,26.9,45.8,34.5c17.2,7.6,36.1,11.4,56.7,11.4c26.4,0,50.6-6.6,72.7-19.8
				c22.1-13.2,39.7-33.5,52.7-61.1C5491.9,1325.1,5498.4,1291.2,5498.4,1251z"/>
		</g>
		<g class="st11">
			<path class="st9" d="M5963,1289.2H5927v163.4c0,21.5-4.7,37.4-14.2,47.5c-9.5,10.2-21.9,15.3-37.1,15.3c-16.4,0-29.1-5.3-38.2-16
				c-9-10.6-13.5-26.2-13.5-46.8v-391.3c0-22.2,5-38.3,14.9-48.2c9.9-9.9,26-14.9,48.2-14.9h167.6c23.1,0,42.9,1,59.3,2.9
				c16.4,2,31.2,6,44.4,12c16,6.7,30.1,16.3,42.3,28.8c12.3,12.5,21.6,27,27.9,43.5c6.4,16.5,9.5,34.1,9.5,52.6
				c0,37.9-10.7,68.2-32.1,90.9c-21.4,22.7-53.8,38.7-97.3,48.2c18.3,9.7,35.7,24.1,52.4,43c16.7,19,31.5,39.1,44.6,60.5
				c13.1,21.4,23.2,40.7,30.5,57.9c7.3,17.2,10.9,29.1,10.9,35.6c0,6.7-2.1,13.4-6.4,19.9c-4.3,6.6-10.1,11.8-17.5,15.6
				c-7.4,3.8-16,5.7-25.7,5.7c-11.6,0-21.3-2.7-29.1-8.2c-7.9-5.4-14.6-12.3-20.3-20.6c-5.7-8.3-13.4-20.6-23.1-36.8l-41.3-68.7
				c-14.8-25.2-28-44.4-39.7-57.6c-11.7-13.2-23.5-22.2-35.6-27.1C5996.5,1291.6,5981.3,1289.2,5963,1289.2z M6022,1075.5H5927
				v139.8h92.3c24.7,0,45.6-2.1,62.4-6.4c16.9-4.3,29.8-11.6,38.7-21.9c8.9-10.3,13.4-24.5,13.4-42.5c0-14.1-3.6-26.5-10.8-37.3
				c-7.2-10.8-17.1-18.8-29.8-24.1C6081.1,1078,6057.4,1075.5,6022,1075.5z"/>
		</g>
	</g>
	<rect x="239.4" y="2632.8" class="st10" width="7655.6" height="391.7"/>
	<g class="st11">
		<path class="st7" d="M266,2918.7v-208.8h31.7v29.3c6.6-10.2,15.3-18.4,26.1-24.7c10.9-6.2,23.3-9.3,37.2-9.3
			c15.5,0,28.1,3.2,38,9.6c9.9,6.4,16.9,15.4,20.9,26.9c16.5-24.4,38-36.6,64.5-36.6c20.7,0,36.6,5.7,47.8,17.2
			c11.1,11.5,16.7,29.1,16.7,53v143.3h-35.2v-131.5c0-14.2-1.1-24.3-3.4-30.6c-2.3-6.2-6.5-11.2-12.5-15c-6-3.8-13.1-5.7-21.2-5.7
			c-14.7,0-26.9,4.9-36.6,14.6c-9.7,9.8-14.5,25.4-14.5,46.9v121.3H390v-135.6c0-15.7-2.9-27.5-8.7-35.4
			c-5.8-7.9-15.2-11.8-28.3-11.8c-10,0-19.2,2.6-27.6,7.9c-8.5,5.2-14.6,12.9-18.4,23c-3.8,10.1-5.7,24.6-5.7,43.6v108.3H266z"/>
	</g>
	<g class="st11">
	</g>
	<g class="st11">
		<path class="st7" d="M825.8,2892.9c-13.1,11.1-25.7,19-37.8,23.6c-12.1,4.6-25.1,6.9-39,6.9c-22.9,0-40.6-5.6-52.9-16.8
			c-12.3-11.2-18.5-25.5-18.5-43c0-10.2,2.3-19.6,7-28c4.7-8.5,10.7-15.2,18.3-20.3c7.5-5.1,16-9,25.5-11.6
			c6.9-1.8,17.4-3.6,31.5-5.3c28.6-3.4,49.6-7.5,63.1-12.2c0.1-4.8,0.2-7.9,0.2-9.2c0-14.4-3.3-24.6-10-30.5c-9-8-22.5-12-40.3-12
			c-16.6,0-28.9,2.9-36.9,8.7c-7.9,5.8-13.8,16.2-17.6,31l-34.6-4.7c3.1-14.8,8.3-26.8,15.5-35.9c7.2-9.1,17.6-16.1,31.3-21
			c13.6-4.9,29.4-7.4,47.4-7.4c17.8,0,32.3,2.1,43.4,6.3c11.1,4.2,19.3,9.5,24.6,15.8c5.2,6.4,8.9,14.4,11,24.1
			c1.2,6,1.8,16.9,1.8,32.6v47.2c0,32.9,0.8,53.7,2.3,62.4c1.5,8.7,4.5,17.1,8.9,25.1h-37C829.2,2911.4,826.9,2902.8,825.8,2892.9z
			 M822.9,2813.9c-12.8,5.2-32.1,9.7-57.8,13.4c-14.5,2.1-24.8,4.5-30.9,7.1c-6,2.6-10.7,6.5-14,11.5c-3.3,5-4.9,10.6-4.9,16.8
			c0,9.4,3.6,17.3,10.7,23.6c7.1,6.3,17.6,9.4,31.4,9.4c13.6,0,25.8-3,36.4-8.9c10.6-6,18.4-14.1,23.4-24.5c3.8-8,5.7-19.8,5.7-35.4
			V2813.9z"/>
	</g>
	<g class="st11">
	</g>
	<g class="st11">
		<path class="st7" d="M971.5,2918.7v-208.8h31.8v29.7c15.3-22.9,37.5-34.4,66.4-34.4c12.6,0,24.1,2.3,34.7,6.8
			c10.5,4.5,18.4,10.5,23.7,17.8c5.2,7.3,8.9,16.1,11,26.1c1.3,6.6,2,18,2,34.4v128.4h-35.4v-127c0-14.4-1.4-25.2-4.1-32.3
			c-2.8-7.1-7.6-12.8-14.6-17.1c-7-4.3-15.2-6.4-24.7-6.4c-15.1,0-28.1,4.8-39,14.4c-10.9,9.6-16.4,27.7-16.4,54.5v114H971.5z"/>
	</g>
	<g class="st11">
	</g>
	<g class="st11">
		<path class="st7" d="M1419,2892.9c-13.1,11.1-25.7,19-37.8,23.6c-12.1,4.6-25.1,6.9-39,6.9c-22.9,0-40.6-5.6-52.9-16.8
			c-12.3-11.2-18.5-25.5-18.5-43c0-10.2,2.3-19.6,7-28c4.7-8.5,10.7-15.2,18.3-20.3c7.5-5.1,16-9,25.5-11.6
			c6.9-1.8,17.4-3.6,31.5-5.3c28.6-3.4,49.6-7.5,63.1-12.2c0.1-4.8,0.2-7.9,0.2-9.2c0-14.4-3.3-24.6-10-30.5c-9-8-22.5-12-40.3-12
			c-16.6,0-28.9,2.9-36.9,8.7c-7.9,5.8-13.8,16.2-17.6,31l-34.6-4.7c3.1-14.8,8.3-26.8,15.5-35.9c7.2-9.1,17.6-16.1,31.3-21
			c13.6-4.9,29.4-7.4,47.4-7.4c17.8,0,32.3,2.1,43.4,6.3c11.1,4.2,19.3,9.5,24.6,15.8c5.2,6.4,8.9,14.4,11,24.1
			c1.2,6,1.8,16.9,1.8,32.6v47.2c0,32.9,0.8,53.7,2.3,62.4c1.5,8.7,4.5,17.1,8.9,25.1h-37C1422.4,2911.4,1420.1,2902.8,1419,2892.9z
			 M1416.1,2813.9c-12.8,5.2-32.1,9.7-57.8,13.4c-14.5,2.1-24.8,4.5-30.9,7.1c-6,2.6-10.7,6.5-14,11.5c-3.3,5-4.9,10.6-4.9,16.8
			c0,9.4,3.6,17.3,10.7,23.6c7.1,6.3,17.6,9.4,31.4,9.4c13.6,0,25.8-3,36.4-8.9c10.6-6,18.4-14.1,23.4-24.5c3.8-8,5.7-19.8,5.7-35.4
			V2813.9z"/>
	</g>
	<g class="st11">
	</g>
	<g class="st11">
		<path class="st7" d="M1558.2,2936l34.4,5.1c1.4,10.6,5.4,18.3,12,23.2c8.8,6.6,20.8,9.8,36,9.8c16.4,0,29-3.3,37.9-9.8
			c8.9-6.6,14.9-15.7,18.1-27.5c1.8-7.2,2.7-22.3,2.6-45.4c-15.5,18.2-34.7,27.3-57.8,27.3c-28.7,0-50.9-10.4-66.6-31.1
			c-15.7-20.7-23.6-45.5-23.6-74.5c0-19.9,3.6-38.3,10.8-55.1c7.2-16.8,17.7-29.8,31.4-39c13.7-9.2,29.8-13.8,48.3-13.8
			c24.6,0,45,10,60.9,29.9v-25.2h32.6v180.5c0,32.5-3.3,55.5-9.9,69.1c-6.6,13.6-17.1,24.3-31.5,32.1c-14.4,7.9-32,11.8-53,11.8
			c-24.9,0-45-5.6-60.4-16.8C1565.1,2975.4,1557.6,2958.5,1558.2,2936z M1587.5,2810.6c0,27.4,5.4,47.4,16.3,60
			c10.9,12.6,24.5,18.9,40.9,18.9c16.2,0,29.9-6.3,40.9-18.8c11-12.5,16.5-32.1,16.5-58.9c0-25.6-5.7-44.8-17-57.8
			c-11.3-13-25-19.5-41-19.5c-15.7,0-29.1,6.4-40.1,19.2C1593,2766.4,1587.5,2785.4,1587.5,2810.6z"/>
	</g>
	<g class="st11">
	</g>
	<g class="st11">
		<path class="st7" d="M2020.5,2851.5l36.6,4.5c-5.8,21.4-16.4,37.9-32,49.7c-15.6,11.8-35.5,17.7-59.8,17.7
			c-30.5,0-54.8-9.4-72.6-28.2c-17.9-18.8-26.8-45.2-26.8-79.1c0-35.1,9-62.4,27.1-81.8c18.1-19.4,41.5-29.1,70.4-29.1
			c27.9,0,50.7,9.5,68.4,28.5c17.7,19,26.5,45.7,26.5,80.2c0,2.1-0.1,5.2-0.2,9.4h-155.7c1.3,22.9,7.8,40.5,19.5,52.7
			c11.7,12.2,26.2,18.3,43.6,18.3c13,0,24-3.4,33.2-10.2C2007.8,2877.3,2015.1,2866.4,2020.5,2851.5z M1904.3,2794.3h116.6
			c-1.6-17.6-6-30.7-13.4-39.5c-11.3-13.6-25.9-20.4-43.8-20.4c-16.3,0-29.9,5.4-41,16.3C1911.6,2761.5,1905.5,2776,1904.3,2794.3z"
			/>
	</g>
	<g class="st11">
	</g>
	<g class="st11">
		<path class="st7" d="M2254.9,2998.7v-288.8h32.2v27.1c7.6-10.6,16.2-18.6,25.8-23.9c9.6-5.3,21.2-8,34.8-8
			c17.8,0,33.5,4.6,47.2,13.8c13.6,9.2,23.9,22.1,30.9,38.8c6.9,16.7,10.4,35,10.4,54.9c0,21.4-3.8,40.6-11.5,57.7
			c-7.7,17.1-18.8,30.2-33.4,39.3c-14.6,9.1-30,13.7-46.1,13.7c-11.8,0-22.4-2.5-31.8-7.5c-9.4-5-17.1-11.3-23.1-18.9v101.6H2254.9z
			 M2286.9,2815.5c0,26.9,5.4,46.7,16.3,59.6c10.9,12.8,24,19.3,39.5,19.3c15.7,0,29.2-6.7,40.4-20c11.2-13.3,16.8-33.9,16.8-61.8
			c0-26.6-5.5-46.5-16.4-59.8c-10.9-13.2-24-19.9-39.2-19.9c-15.1,0-28.4,7-40,21.1C2292.7,2768.1,2286.9,2788.6,2286.9,2815.5z"/>
	</g>
	<g class="st11">
	</g>
	<g class="st11">
		<path class="st7" d="M2571.4,2918.7v-208.8h31.8v31.7c8.1-14.8,15.6-24.6,22.5-29.3c6.9-4.7,14.4-7.1,22.7-7.1
			c11.9,0,24,3.8,36.4,11.4l-12.2,32.8c-8.6-5.1-17.3-7.7-25.9-7.7c-7.7,0-14.7,2.3-20.8,7c-6.2,4.7-10.6,11.1-13.2,19.4
			c-3.9,12.6-5.9,26.3-5.9,41.3v109.3H2571.4z"/>
	</g>
	<g class="st11">
	</g>
	<g class="st11">
		<path class="st7" d="M2778.1,2814.3c0-38.7,10.7-67.3,32.2-85.9c18-15.5,39.8-23.2,65.7-23.2c28.7,0,52.2,9.4,70.4,28.2
			c18.2,18.8,27.3,44.8,27.3,77.9c0,26.9-4,48-12.1,63.4c-8.1,15.4-19.8,27.4-35.2,35.9c-15.4,8.5-32.2,12.8-50.4,12.8
			c-29.2,0-52.9-9.4-70.9-28.1C2787.1,2876.6,2778.1,2849.6,2778.1,2814.3z M2814.5,2814.3c0,26.7,5.8,46.8,17.5,60.1
			c11.7,13.3,26.3,20,44,20c17.6,0,32.2-6.7,43.8-20.1c11.7-13.4,17.5-33.7,17.5-61.1c0-25.8-5.9-45.4-17.6-58.7
			c-11.7-13.3-26.3-20-43.7-20c-17.7,0-32.4,6.6-44,19.9C2820.3,2767.6,2814.5,2787.6,2814.5,2814.3z"/>
	</g>
	<g class="st11">
	</g>
	<g class="st11">
		<path class="st7" d="M3055.1,2999.7l6.7-30.1c7.1,1.8,12.6,2.8,16.7,2.8c7.2,0,12.6-2.4,16.1-7.2c3.5-4.8,5.3-16.7,5.3-35.9
			v-219.4h35.4v220.2c0,25.7-3.3,43.6-10,53.7c-8.5,13.1-22.7,19.7-42.5,19.7C3073.3,3003.4,3064,3002.2,3055.1,2999.7z
			 M3099.9,2671.6v-41.1h35.4v41.1H3099.9z"/>
	</g>
	<g class="st11">
	</g>
	<g class="st11">
		<path class="st7" d="M3428.7,2851.5l36.6,4.5c-5.8,21.4-16.4,37.9-32,49.7c-15.6,11.8-35.5,17.7-59.8,17.7
			c-30.5,0-54.8-9.4-72.6-28.2c-17.9-18.8-26.8-45.2-26.8-79.1c0-35.1,9-62.4,27.1-81.8c18.1-19.4,41.5-29.1,70.4-29.1
			c27.9,0,50.7,9.5,68.4,28.5c17.7,19,26.5,45.7,26.5,80.2c0,2.1-0.1,5.2-0.2,9.4h-155.7c1.3,22.9,7.8,40.5,19.5,52.7
			c11.7,12.2,26.2,18.3,43.6,18.3c13,0,24-3.4,33.2-10.2C3416,2877.3,3423.3,2866.4,3428.7,2851.5z M3312.5,2794.3h116.6
			c-1.6-17.6-6-30.7-13.4-39.5c-11.3-13.6-25.9-20.4-43.8-20.4c-16.3,0-29.9,5.4-41,16.3C3319.8,2761.5,3313.7,2776,3312.5,2794.3z"
			/>
	</g>
	<g class="st11">
	</g>
	<g class="st11">
		<path class="st7" d="M3711.6,2842.2l34.8,4.5c-3.8,24-13.5,42.8-29.2,56.3c-15.7,13.6-34.9,20.3-57.7,20.3
			c-28.6,0-51.5-9.3-68.9-28c-17.4-18.7-26-45.4-26-80.3c0-22.5,3.7-42.3,11.2-59.2c7.5-16.9,18.8-29.6,34.1-38
			c15.3-8.5,31.9-12.7,49.8-12.7c22.7,0,41.2,5.7,55.6,17.2c14.4,11.5,23.7,27.8,27.7,48.9l-34.4,5.3c-3.3-14-9.1-24.6-17.4-31.7
			c-8.3-7.1-18.4-10.6-30.2-10.6c-17.8,0-32.3,6.4-43.4,19.2c-11.1,12.8-16.7,33-16.7,60.6c0,28,5.4,48.4,16.1,61.1
			c10.7,12.7,24.8,19.1,42.1,19.1c13.9,0,25.5-4.3,34.8-12.8C3703.2,2873,3709.1,2859.9,3711.6,2842.2z"/>
	</g>
	<g class="st11">
	</g>
	<g class="st11">
		<path class="st7" d="M3920.8,2887l5.1,31.3c-10,2.1-18.9,3.1-26.7,3.1c-12.8,0-22.8-2-29.9-6.1c-7.1-4.1-12.1-9.4-14.9-16
			c-2.9-6.6-4.3-20.5-4.3-41.8v-120.1h-26v-27.5h26v-51.7l35.2-21.2v72.9h35.6v27.5h-35.6v122.1c0,10.1,0.6,16.6,1.9,19.5
			c1.2,2.9,3.3,5.2,6.1,6.9c2.8,1.7,6.8,2.6,12.1,2.6C3909.2,2888.4,3914.3,2888,3920.8,2887z"/>
	</g>
	<g class="st11">
	</g>
	<g class="st11">
		<path class="st7" d="M4050.5,2856.4l35-5.5c2,14,7.4,24.8,16.4,32.2c9,7.5,21.5,11.2,37.6,11.2c16.2,0,28.3-3.3,36.2-9.9
			c7.9-6.6,11.8-14.4,11.8-23.3c0-8-3.5-14.3-10.4-18.9c-4.9-3.1-16.9-7.1-36.2-12c-26-6.6-43.9-12.2-54-17
			c-10-4.8-17.6-11.4-22.8-19.9c-5.2-8.5-7.8-17.8-7.8-28c0-9.3,2.1-17.9,6.4-25.9c4.3-7.9,10.1-14.5,17.4-19.8
			c5.5-4.1,13-7.5,22.5-10.3c9.5-2.8,19.7-4.2,30.6-4.2c16.4,0,30.8,2.4,43.2,7.1c12.4,4.7,21.5,11.1,27.4,19.2
			c5.9,8.1,10,18.8,12.2,32.3l-34.6,4.7c-1.6-10.7-6.1-19.1-13.7-25.2c-7.5-6-18.2-9-31.9-9c-16.3,0-27.9,2.7-34.8,8.1
			c-6.9,5.4-10.4,11.7-10.4,18.9c0,4.6,1.4,8.7,4.3,12.4c2.9,3.8,7.4,6.9,13.6,9.4c3.5,1.3,14,4.3,31.3,9
			c25,6.7,42.5,12.2,52.4,16.4c9.9,4.3,17.7,10.5,23.3,18.6c5.6,8.1,8.5,18.2,8.5,30.3c0,11.8-3.4,22.9-10.3,33.3
			c-6.9,10.4-16.8,18.5-29.8,24.2c-13,5.7-27.7,8.6-44,8.6c-27.1,0-47.8-5.6-62-16.9C4063.5,2895.2,4054.4,2878.5,4050.5,2856.4z"/>
	</g>
	<g class="st11">
	</g>
	<g class="st11">
		<path class="st7" d="M4408.2,2918.7v-181.3h-31.3v-27.5h31.3v-22.2c0-14,1.2-24.4,3.7-31.3c3.4-9.2,9.4-16.6,18-22.3
			c8.6-5.7,20.6-8.6,36.1-8.6c10,0,21,1.2,33,3.5l-5.3,30.9c-7.3-1.3-14.3-2-20.8-2c-10.7,0-18.4,2.3-22.8,6.9
			c-4.5,4.6-6.7,13.2-6.7,25.8v19.3h40.7v27.5h-40.7v181.3H4408.2z"/>
	</g>
	<g class="st11">
	</g>
	<g class="st11">
		<path class="st7" d="M4604.7,2918.7v-208.8h31.8v31.7c8.1-14.8,15.6-24.6,22.5-29.3c6.9-4.7,14.4-7.1,22.7-7.1
			c11.9,0,24,3.8,36.4,11.4l-12.2,32.8c-8.6-5.1-17.3-7.7-25.9-7.7c-7.7,0-14.7,2.3-20.8,7c-6.2,4.7-10.6,11.1-13.2,19.4
			c-3.9,12.6-5.9,26.3-5.9,41.3v109.3H4604.7z"/>
	</g>
	<g class="st11">
	</g>
	<g class="st11">
		<path class="st7" d="M4811.4,2814.3c0-38.7,10.7-67.3,32.2-85.9c18-15.5,39.8-23.2,65.7-23.2c28.7,0,52.2,9.4,70.4,28.2
			c18.2,18.8,27.3,44.8,27.3,77.9c0,26.9-4,48-12.1,63.4c-8.1,15.4-19.8,27.4-35.2,35.9c-15.4,8.5-32.2,12.8-50.4,12.8
			c-29.2,0-52.9-9.4-70.9-28.1C4820.4,2876.6,4811.4,2849.6,4811.4,2814.3z M4847.8,2814.3c0,26.7,5.8,46.8,17.5,60.1
			c11.7,13.3,26.3,20,44,20c17.6,0,32.2-6.7,43.8-20.1c11.7-13.4,17.5-33.7,17.5-61.1c0-25.8-5.9-45.4-17.6-58.7
			c-11.7-13.3-26.3-20-43.7-20c-17.7,0-32.4,6.6-44,19.9C4853.6,2767.6,4847.8,2787.6,4847.8,2814.3z"/>
	</g>
	<g class="st11">
	</g>
	<g class="st11">
		<path class="st7" d="M5133.4,2918.7v-208.8h31.7v29.3c6.6-10.2,15.3-18.4,26.1-24.7c10.9-6.2,23.3-9.3,37.2-9.3
			c15.5,0,28.1,3.2,38,9.6c9.9,6.4,16.9,15.4,20.9,26.9c16.5-24.4,38-36.6,64.5-36.6c20.7,0,36.6,5.7,47.8,17.2
			c11.1,11.5,16.7,29.1,16.7,53v143.3h-35.2v-131.5c0-14.2-1.1-24.3-3.4-30.6c-2.3-6.2-6.5-11.2-12.5-15c-6-3.8-13.1-5.7-21.2-5.7
			c-14.7,0-26.9,4.9-36.6,14.6c-9.7,9.8-14.5,25.4-14.5,46.9v121.3h-35.4v-135.6c0-15.7-2.9-27.5-8.7-35.4
			c-5.8-7.9-15.2-11.8-28.3-11.8c-10,0-19.2,2.6-27.6,7.9c-8.5,5.2-14.6,12.9-18.4,23c-3.8,10.1-5.7,24.6-5.7,43.6v108.3H5133.4z"/>
	</g>
	<g class="st11">
	</g>
	<g class="st11">
		<path class="st7" d="M5781.1,2892.9c-13.1,11.1-25.7,19-37.8,23.6c-12.1,4.6-25.1,6.9-39,6.9c-22.9,0-40.6-5.6-52.9-16.8
			c-12.3-11.2-18.5-25.5-18.5-43c0-10.2,2.3-19.6,7-28c4.7-8.5,10.7-15.2,18.3-20.3c7.5-5.1,16-9,25.5-11.6
			c6.9-1.8,17.4-3.6,31.5-5.3c28.6-3.4,49.6-7.5,63.1-12.2c0.1-4.8,0.2-7.9,0.2-9.2c0-14.4-3.3-24.6-10-30.5c-9-8-22.5-12-40.3-12
			c-16.6,0-28.9,2.9-36.9,8.7c-7.9,5.8-13.8,16.2-17.6,31l-34.6-4.7c3.1-14.8,8.3-26.8,15.5-35.9c7.2-9.1,17.6-16.1,31.3-21
			c13.6-4.9,29.4-7.4,47.4-7.4c17.8,0,32.3,2.1,43.4,6.3c11.1,4.2,19.3,9.5,24.6,15.8c5.2,6.4,8.9,14.4,11,24.1
			c1.2,6,1.8,16.9,1.8,32.6v47.2c0,32.9,0.8,53.7,2.3,62.4c1.5,8.7,4.5,17.1,8.9,25.1h-37
			C5784.5,2911.4,5782.1,2902.8,5781.1,2892.9z M5778.1,2813.9c-12.8,5.2-32.1,9.7-57.8,13.4c-14.5,2.1-24.8,4.5-30.9,7.1
			c-6,2.6-10.7,6.5-14,11.5c-3.3,5-4.9,10.6-4.9,16.8c0,9.4,3.6,17.3,10.7,23.6c7.1,6.3,17.6,9.4,31.4,9.4c13.6,0,25.8-3,36.4-8.9
			c10.6-6,18.4-14.1,23.4-24.5c3.8-8,5.7-19.8,5.7-35.4V2813.9z"/>
	</g>
	<g class="st11">
	</g>
	<g class="st11">
		<path class="st7" d="M5926.7,2918.7v-208.8h31.8v29.7c15.3-22.9,37.5-34.4,66.4-34.4c12.6,0,24.1,2.3,34.7,6.8
			c10.5,4.5,18.4,10.5,23.7,17.8c5.2,7.3,8.9,16.1,11,26.1c1.3,6.6,2,18,2,34.4v128.4H6061v-127c0-14.4-1.4-25.2-4.1-32.3
			c-2.8-7.1-7.6-12.8-14.6-17.1c-7-4.3-15.2-6.4-24.7-6.4c-15.1,0-28.1,4.8-39,14.4c-10.9,9.6-16.4,27.7-16.4,54.5v114H5926.7z"/>
	</g>
	<g class="st11">
	</g>
	<g class="st11">
		<path class="st7" d="M6236.5,2999.1l-3.9-33.2c7.7,2.1,14.5,3.1,20.2,3.1c7.9,0,14.2-1.3,18.9-3.9c4.7-2.6,8.6-6.3,11.6-11
			c2.2-3.5,5.8-12.3,10.8-26.3c0.7-2,1.7-4.8,3.1-8.6l-79.2-209.2h38.1l43.4,120.9c5.6,15.3,10.7,31.5,15.1,48.4
			c4.1-16.2,8.9-32.1,14.5-47.6l44.6-121.7h35.4l-79.4,212.3c-8.5,22.9-15.1,38.7-19.9,47.4c-6.3,11.7-13.5,20.2-21.6,25.7
			c-8.1,5.4-17.8,8.2-29.1,8.2C6252.4,3003.4,6244.8,3002,6236.5,2999.1z"/>
	</g>
	<g class="st11">
	</g>
	<g class="st11">
		<path class="st7" d="M6554,2918.7l-63.9-208.8h36.6l33.2,120.5l12.4,44.8c0.5-2.2,4.1-16.6,10.8-43.1l33.2-122.3h36.4L6684,2831
			l10.4,39.9l12-40.3l35.8-120.7h34.4l-65.3,208.8h-36.8l-33.2-125l-8.1-35.6l-42.3,160.6H6554z"/>
	</g>
	<g class="st11">
	</g>
	<g class="st11">
		<path class="st7" d="M6899.6,2918.7v-288.2h35.4v103.4c16.5-19.1,37.4-28.7,62.5-28.7c15.5,0,28.9,3,40.3,9.1s19.6,14.5,24.5,25.3
			c4.9,10.7,7.4,26.3,7.4,46.8v132.3h-35.4v-132.3c0-17.7-3.8-30.6-11.5-38.6c-7.7-8.1-18.5-12.1-32.5-12.1
			c-10.5,0-20.3,2.7-29.6,8.2c-9.2,5.4-15.8,12.8-19.8,22.1c-3.9,9.3-5.9,22.2-5.9,38.5v114.2H6899.6z"/>
	</g>
	<g class="st11">
	</g>
	<g class="st11">
		<path class="st7" d="M7353.8,2851.5l36.6,4.5c-5.8,21.4-16.4,37.9-32,49.7c-15.6,11.8-35.5,17.7-59.8,17.7
			c-30.5,0-54.8-9.4-72.6-28.2c-17.9-18.8-26.8-45.2-26.8-79.1c0-35.1,9-62.4,27.1-81.8c18.1-19.4,41.5-29.1,70.4-29.1
			c27.9,0,50.7,9.5,68.4,28.5c17.7,19,26.5,45.7,26.5,80.2c0,2.1-0.1,5.2-0.2,9.4h-155.7c1.3,22.9,7.8,40.5,19.5,52.7
			c11.7,12.2,26.2,18.3,43.6,18.3c13,0,24-3.4,33.2-10.2C7341.2,2877.3,7348.4,2866.4,7353.8,2851.5z M7237.6,2794.3h116.6
			c-1.6-17.6-6-30.7-13.4-39.5c-11.3-13.6-25.9-20.4-43.8-20.4c-16.3,0-29.9,5.4-41,16.3C7244.9,2761.5,7238.8,2776,7237.6,2794.3z"
			/>
	</g>
	<g class="st11">
	</g>
	<g class="st11">
		<path class="st7" d="M7500.1,2918.7v-208.8h31.8v31.7c8.1-14.8,15.6-24.6,22.5-29.3c6.9-4.7,14.4-7.1,22.7-7.1
			c11.9,0,24,3.8,36.4,11.4l-12.2,32.8c-8.6-5.1-17.3-7.7-25.9-7.7c-7.7,0-14.7,2.3-20.8,7c-6.2,4.7-10.6,11.1-13.2,19.4
			c-3.9,12.6-5.9,26.3-5.9,41.3v109.3H7500.1z"/>
	</g>
	<g class="st11">
	</g>
	<g class="st11">
		<path class="st7" d="M7862.8,2851.5l36.6,4.5c-5.8,21.4-16.4,37.9-32,49.7c-15.6,11.8-35.5,17.7-59.8,17.7
			c-30.5,0-54.8-9.4-72.6-28.2c-17.9-18.8-26.8-45.2-26.8-79.1c0-35.1,9-62.4,27.1-81.8c18.1-19.4,41.5-29.1,70.4-29.1
			c27.9,0,50.7,9.5,68.4,28.5c17.7,19,26.5,45.7,26.5,80.2c0,2.1-0.1,5.2-0.2,9.4h-155.7c1.3,22.9,7.8,40.5,19.5,52.7
			c11.7,12.2,26.2,18.3,43.6,18.3c13,0,24-3.4,33.2-10.2C7850.2,2877.3,7857.5,2866.4,7862.8,2851.5z M7746.7,2794.3h116.6
			c-1.6-17.6-6-30.7-13.4-39.5c-11.3-13.6-25.9-20.4-43.8-20.4c-16.3,0-29.9,5.4-41,16.3C7754,2761.5,7747.8,2776,7746.7,2794.3z"/>
	</g>
</g>
</svg>
